<svg width="50" height="50" viewBox="0 0 50 50" fill="none" xmlns="http://www.w3.org/2000/svg">
<path d="M8.3335 37.5C8.3335 35.2899 9.21147 33.1702 10.7743 31.6074C12.3371 30.0446 14.4567 29.1667 16.6668 29.1667H33.3335C35.5436 29.1667 37.6632 30.0446 39.226 31.6074C40.7889 33.1702 41.6668 35.2899 41.6668 37.5C41.6668 38.6051 41.2278 39.6649 40.4464 40.4463C39.665 41.2277 38.6052 41.6667 37.5002 41.6667H12.5002C11.3951 41.6667 10.3353 41.2277 9.55388 40.4463C8.77248 39.6649 8.3335 38.6051 8.3335 37.5Z" stroke="black" stroke-linejoin="round"/>
<path d="M25 20.8333C28.4518 20.8333 31.25 18.0351 31.25 14.5833C31.25 11.1315 28.4518 8.33333 25 8.33333C21.5482 8.33333 18.75 11.1315 18.75 14.5833C18.75 18.0351 21.5482 20.8333 25 20.8333Z" stroke="black"/>
</svg>
